<svg width="212" height="266" viewBox="0 0 212 266" fill="none" xmlns="http://www.w3.org/2000/svg">
<path d="M9.63637 0H202.364L177.309 264.036H33.7273L9.63637 0Z" fill="#CA955C"/>
<mask id="mask0_4_78" style="mask-type:alpha" maskUnits="userSpaceOnUse" x="9" y="0" width="194" height="265">
<path d="M9.63637 0H202.364L177.309 264.036H33.7273L9.63637 0Z" fill="#D9D9D9"/>
</mask>
<g mask="url(#mask0_4_78)">
<rect x="156.109" y="-62.6363" width="3.85455" height="264.036" transform="rotate(-30 156.109 -62.6363)" fill="#876445"/>
<rect x="141.558" y="-87.8392" width="3.85455" height="430.764" transform="rotate(-30 141.558 -87.8392)" fill="#876445"/>
<rect x="123.345" y="-78.0545" width="3.85455" height="430.764" transform="rotate(-30 123.345 -78.0545)" fill="#876445"/>
<rect x="105.133" y="-68.2698" width="3.85455" height="430.764" transform="rotate(-30 105.133 -68.2698)" fill="#876445"/>
<rect x="86.92" y="-58.4851" width="3.85455" height="430.764" transform="rotate(-30 86.92 -58.4851)" fill="#876445"/>
<rect x="68.7072" y="-48.7004" width="3.85455" height="430.764" transform="rotate(-30 68.7072 -48.7004)" fill="#876445"/>
<rect x="50.4944" y="-38.9157" width="3.85455" height="430.764" transform="rotate(-30 50.4944 -38.9157)" fill="#876445"/>
<rect x="32.2817" y="-29.131" width="3.85455" height="430.764" transform="rotate(-30 32.2817 -29.131)" fill="#876445"/>
<rect x="14.0689" y="-19.3463" width="3.85455" height="430.764" transform="rotate(-30 14.0689 -19.3463)" fill="#876445"/>
<rect x="-4.1438" y="-9.56165" width="3.85455" height="430.764" transform="rotate(-30 -4.1438 -9.56165)" fill="#876445"/>
<rect x="-22.3566" y="0.223053" width="3.85455" height="430.764" transform="rotate(-30 -22.3566 0.223053)" fill="#876445"/>
<rect x="-40.5693" y="10.0078" width="3.85455" height="430.764" transform="rotate(-30 -40.5693 10.0078)" fill="#876445"/>
<rect x="-58.782" y="19.7924" width="3.85455" height="430.764" transform="rotate(-30 -58.782 19.7924)" fill="#876445"/>
<rect x="-76.9948" y="29.5771" width="3.85455" height="430.764" transform="rotate(-30 -76.9948 29.5771)" fill="#876445"/>
<rect x="-95.2076" y="39.3618" width="3.85455" height="430.764" transform="rotate(-30 -95.2076 39.3618)" fill="#876445"/>
<rect x="150.327" y="107.927" width="59.7455" height="53.9636" fill="white"/>
<rect x="3.85455" y="107.927" width="59.7455" height="53.9636" fill="white"/>
</g>
<rect width="212" height="5.78182" rx="2.89091" fill="url(#paint0_linear_4_78)"/>
<rect x="28.9091" y="260.182" width="154.182" height="5.78182" rx="2.89091" fill="url(#paint1_linear_4_78)"/>
<circle cx="106" cy="132.982" r="57.8182" fill="white"/>
<circle cx="106" cy="132.982" r="47.1818" fill="white" stroke="#CA955C" stroke-width="2" stroke-dasharray="5 5"/>
<path d="M109.05 151.19C115.953 146.357 115.774 134.193 108.652 124.02C101.529 113.848 90.1592 109.52 83.2566 114.353C76.354 119.186 76.5324 131.351 83.6551 141.523C90.7778 151.695 102.148 156.023 109.05 151.19Z" fill="#A57939"/>
<path fill-rule="evenodd" clip-rule="evenodd" d="M109.05 151.19C109.04 151.197 109.028 151.184 109.036 151.175C113.299 145.412 112.2 134.98 105.907 125.992C99.6103 116.999 90.1754 112.4 83.3015 114.442C83.2453 114.46 83.2086 114.387 83.2566 114.353C90.159 109.52 101.529 113.848 108.652 124.02C115.774 134.193 115.953 146.357 109.05 151.19Z" fill="#6A462F"/>
<path d="M109.036 151.175L109.681 151.652L109.036 151.175ZM105.249 126.452C108.327 130.848 110.12 135.579 110.632 139.887C111.145 144.203 110.364 148.027 108.389 150.696L109.68 151.652C111.968 148.558 112.771 144.284 112.226 139.697C111.681 135.101 109.779 130.122 106.564 125.531L105.249 126.452ZM83.5291 115.211C86.7137 114.266 90.5751 114.838 94.4588 116.795C98.3339 118.748 102.168 122.053 105.249 126.452L106.564 125.531C103.348 120.937 99.3166 117.445 95.1821 115.361C91.055 113.281 86.7626 112.576 83.0722 113.673L83.5296 115.212L83.5291 115.211ZM83.7172 115.011C86.8859 112.792 91.1547 112.624 95.586 114.31C100.012 115.995 104.513 119.509 107.994 124.481L109.309 123.56C105.668 118.36 100.922 114.623 96.1579 112.809C91.3964 110.998 86.5304 111.08 82.796 113.695L83.7172 115.011ZM107.994 124.481C111.476 129.453 113.238 134.883 113.308 139.619C113.377 144.36 111.758 148.314 108.59 150.532L109.511 151.848C113.245 149.233 114.988 144.688 114.913 139.595C114.839 134.499 112.951 128.761 109.309 123.56L107.994 124.481ZM83.0727 113.673C83.2435 113.624 83.4262 113.637 83.5885 113.71C83.7507 113.782 83.882 113.91 83.9592 114.07C84.0363 114.23 84.0544 114.413 84.0101 114.585C83.9658 114.757 83.8621 114.908 83.7172 115.011L82.796 113.695C82.6285 113.812 82.5086 113.986 82.4583 114.184C82.408 114.382 82.4307 114.592 82.5222 114.774C82.6796 115.091 83.0749 115.348 83.53 115.213L83.0727 113.673V113.673ZM108.389 150.697C107.823 151.463 108.779 152.36 109.511 151.848L108.59 150.532C109.3 150.035 110.233 150.906 109.681 151.652L108.389 150.697Z" fill="#6A462F"/>
<path fill-rule="evenodd" clip-rule="evenodd" d="M107.668 149.217C107.668 149.217 98.5661 144.618 92.2066 135.535C85.8687 126.484 84.6471 116.395 84.6384 116.327C84.6442 116.375 85.2582 121.412 88.4225 125.931C91.602 130.472 96.1534 132.772 96.1534 132.772C96.1534 132.772 100.704 135.071 103.884 139.612C107.064 144.153 107.668 149.217 107.668 149.217Z" fill="#6A462F"/>
<path d="M107.668 149.217L107.306 149.933C107.436 149.998 107.581 150.027 107.726 150.017C107.87 150.007 108.01 149.957 108.128 149.874C108.247 149.791 108.342 149.677 108.401 149.544C108.46 149.412 108.482 149.266 108.465 149.121L107.668 149.217ZM84.6384 116.327L85.4356 116.23C85.4101 116.019 85.3016 115.826 85.1341 115.694C84.9665 115.563 84.7536 115.503 84.5421 115.529C84.3306 115.554 84.138 115.663 84.0064 115.83C83.8749 115.998 83.8154 116.211 83.8408 116.422L84.6384 116.327ZM96.1534 132.772L96.5151 132.055L96.1534 132.772ZM91.5488 135.996C94.7923 140.628 98.7275 144.107 101.842 146.426C103.096 147.362 104.394 148.235 105.733 149.044C106.212 149.333 106.698 149.609 107.191 149.873L107.274 149.916L107.296 149.928L107.303 149.931L107.305 149.933L107.305 149.933L107.668 149.217C108.03 148.5 108.031 148.499 108.031 148.5L108.031 148.499L108.027 148.498L108.01 148.489L107.938 148.451C107.842 148.401 107.746 148.35 107.651 148.297C107.284 148.095 106.92 147.885 106.561 147.668C105.267 146.886 104.013 146.042 102.802 145.138C99.7756 142.885 95.9799 139.524 92.8644 135.075L91.5488 135.996ZM83.8408 116.422C83.854 116.531 85.0949 126.779 91.5488 135.996L92.8644 135.075C86.6417 126.188 85.4394 116.261 85.436 116.231L83.8408 116.422V116.422ZM89.0803 125.47C87.5617 123.302 86.6487 120.998 86.115 119.221C85.5819 117.447 85.4345 116.223 85.4356 116.23L83.8413 116.423C83.8513 116.51 84.4848 121.707 87.7643 126.391L89.0799 125.47L89.0803 125.47ZM96.1534 132.772C96.5151 132.055 96.5157 132.054 96.5162 132.055L96.5157 132.054L96.5083 132.051C96.4511 132.021 96.3943 131.991 96.338 131.96C96.2155 131.893 96.0347 131.79 95.8064 131.653C95.171 131.269 94.5547 130.854 93.9596 130.41C92.4688 129.3 90.6058 127.649 89.0803 125.47L87.7647 126.391C89.4183 128.753 91.4207 130.522 93.0002 131.698C93.6376 132.174 94.2979 132.618 94.9786 133.029C95.2248 133.177 95.4747 133.319 95.7279 133.455L95.7722 133.479C95.7775 133.481 95.7816 133.484 95.785 133.484L95.7886 133.487L95.7902 133.488L96.1534 132.772ZM96.1534 132.772L95.7906 133.488L95.7985 133.493C95.8558 133.522 95.9125 133.552 95.9688 133.583C96.0908 133.65 96.2716 133.752 96.5 133.89C96.9577 134.165 97.6036 134.58 98.3467 135.133C99.8376 136.242 101.701 137.894 103.227 140.073L104.542 139.152C102.888 136.79 100.886 135.02 99.3062 133.844C98.6687 133.369 98.0085 132.925 97.3278 132.514C97.0674 132.357 96.8029 132.207 96.5347 132.065L96.5214 132.058L96.5178 132.056L96.5162 132.055L96.1534 132.772ZM103.227 140.073C104.752 142.252 105.666 144.567 106.199 146.348C106.413 147.059 106.592 147.78 106.736 148.508C106.787 148.772 106.832 149.037 106.869 149.304L106.871 149.311L107.668 149.217L108.466 149.121L108.465 149.119C108.465 149.117 108.465 149.116 108.464 149.114C108.465 149.111 108.463 149.106 108.463 149.1L108.457 149.05C108.45 149.007 108.442 148.946 108.43 148.868C108.405 148.711 108.368 148.485 108.312 148.201C108.159 147.421 107.967 146.649 107.738 145.888C107.173 143.999 106.196 141.513 104.542 139.152L103.227 140.073Z" fill="#6A462F"/>
<path d="M109.05 151.19C115.953 146.357 115.774 134.193 108.652 124.02C101.529 113.848 90.1592 109.52 83.2566 114.353C76.354 119.186 76.5324 131.351 83.6551 141.523C90.7778 151.695 102.148 156.023 109.05 151.19Z" stroke="black"/>
<path d="M96.1534 132.772C96.1534 132.772 91.6025 130.472 88.4225 125.931C85.2425 121.389 84.6384 116.327 84.6384 116.327M96.1534 132.772C96.1534 132.772 100.704 135.071 103.884 139.612C107.064 144.154 107.668 149.217 107.668 149.217" stroke="black" stroke-linecap="round" stroke-linejoin="round"/>
<path d="M100.602 158.899C107.505 163.732 118.874 159.404 125.997 149.232C133.12 139.06 133.298 126.895 126.396 122.062C119.493 117.229 108.123 121.557 101.001 131.729C93.8779 141.902 93.6995 154.066 100.602 158.899Z" fill="#A57939"/>
<path fill-rule="evenodd" clip-rule="evenodd" d="M100.602 158.899C100.592 158.892 100.6 158.876 100.611 158.88C107.485 160.915 116.912 156.315 123.206 147.327C129.502 138.335 130.598 127.896 126.327 122.135C126.291 122.088 126.348 122.029 126.396 122.062C133.298 126.895 133.12 139.06 125.997 149.232C118.874 159.404 107.504 163.732 100.602 158.899Z" fill="#6A462F"/>
<path d="M100.611 158.88L100.383 159.65L100.611 158.88ZM122.548 146.866C119.47 151.262 115.638 154.566 111.764 156.52C107.884 158.478 104.023 159.052 100.84 158.109L100.384 159.649C104.074 160.741 108.364 160.034 112.488 157.953C116.621 155.869 120.649 152.379 123.864 147.787L122.548 146.866ZM125.682 122.612C127.66 125.281 128.443 129.105 127.933 133.424C127.423 137.733 125.629 142.467 122.548 146.866L123.864 147.787C127.081 143.193 128.983 138.211 129.527 133.613C130.071 129.023 129.265 124.749 126.972 121.656L125.682 122.612L125.682 122.612ZM125.935 122.72C129.104 124.939 130.722 128.892 130.653 133.633C130.583 138.369 128.821 143.8 125.339 148.772L126.655 149.693C130.296 144.493 132.184 138.754 132.259 133.657C132.333 128.563 130.591 124.019 126.856 121.404L125.935 122.72ZM125.339 148.772C121.858 153.744 117.358 157.258 112.932 158.942C108.5 160.629 104.231 160.46 101.063 158.241L100.141 159.557C103.876 162.172 108.743 162.255 113.503 160.443C118.267 158.63 123.013 154.894 126.655 149.693L125.339 148.772ZM126.972 121.657C127.076 121.801 127.127 121.977 127.114 122.154C127.101 122.331 127.026 122.498 126.902 122.626C126.778 122.753 126.613 122.832 126.436 122.849C126.259 122.867 126.081 122.821 125.935 122.72L126.856 121.404C126.689 121.287 126.485 121.234 126.282 121.254C126.078 121.275 125.889 121.368 125.749 121.516C125.504 121.772 125.399 122.232 125.682 122.613L126.972 121.657V121.657ZM100.839 158.11C99.9257 157.839 99.41 159.045 100.141 159.557L101.063 158.241C101.773 158.739 101.273 159.913 100.383 159.65L100.839 158.11Z" fill="#6A462F"/>
<path fill-rule="evenodd" clip-rule="evenodd" d="M101.984 156.926C101.984 156.926 103.193 146.799 109.552 137.717C115.89 128.666 124.953 124.067 125.014 124.036C124.97 124.058 120.447 126.357 117.283 130.876C114.103 135.417 113.499 140.481 113.499 140.481C113.499 140.481 112.895 145.544 109.715 150.085C106.535 154.626 101.984 156.926 101.984 156.926Z" fill="#6A462F"/>
<path d="M101.984 156.926L101.187 156.831C101.17 156.975 101.192 157.121 101.251 157.253C101.311 157.386 101.405 157.5 101.524 157.583C101.643 157.666 101.782 157.716 101.927 157.726C102.072 157.736 102.216 157.707 102.346 157.642L101.984 156.926ZM125.014 124.036L125.377 124.752C125.567 124.655 125.711 124.488 125.777 124.285C125.844 124.083 125.827 123.862 125.73 123.672C125.634 123.482 125.466 123.338 125.264 123.272C125.062 123.206 124.841 123.223 124.651 123.319L125.014 124.036ZM113.499 140.481L114.296 140.575L113.499 140.481ZM108.894 137.257C105.651 141.889 103.727 146.777 102.613 150.497C102.163 151.995 101.786 153.514 101.484 155.048C101.377 155.597 101.284 156.148 101.204 156.701L101.192 156.795L101.188 156.819L101.187 156.827L101.186 156.829L101.187 156.829L101.984 156.926C102.781 157.02 102.782 157.021 102.781 157.022L102.782 157.021L102.782 157.017L102.784 156.998L102.795 156.918C102.81 156.81 102.825 156.703 102.842 156.595C102.907 156.181 102.979 155.767 103.06 155.355C103.353 153.872 103.717 152.405 104.152 150.957C105.234 147.344 107.094 142.627 110.21 138.178L108.894 137.257ZM124.651 123.319C124.554 123.368 115.348 128.039 108.894 137.257L110.21 138.178C116.433 129.291 125.35 124.766 125.377 124.752L124.651 123.319V123.319ZM117.941 131.337C119.459 129.168 121.312 127.522 122.799 126.413C124.284 125.305 125.383 124.748 125.377 124.752L124.651 123.32C124.572 123.359 119.905 125.732 116.626 130.415L117.941 131.336L117.941 131.337ZM113.499 140.481C114.296 140.575 114.297 140.576 114.296 140.577L114.297 140.576L114.298 140.568C114.306 140.504 114.315 140.44 114.325 140.377C114.346 140.239 114.381 140.034 114.431 139.772C114.575 139.044 114.754 138.323 114.968 137.612C115.501 135.831 116.415 133.516 117.941 131.337L116.625 130.416C114.972 132.777 113.994 135.264 113.429 137.151C113.2 137.912 113.009 138.684 112.856 139.465C112.8 139.747 112.752 140.03 112.711 140.315L112.704 140.364C112.704 140.37 112.702 140.375 112.703 140.378L112.702 140.383L112.702 140.384L113.499 140.481ZM113.499 140.481L112.701 140.385L112.7 140.394C112.692 140.458 112.683 140.521 112.673 140.585C112.652 140.722 112.618 140.927 112.567 141.189C112.464 141.713 112.296 142.462 112.03 143.349C111.497 145.13 110.582 147.446 109.057 149.624L110.373 150.546C112.027 148.184 113.004 145.697 113.569 143.81C113.798 143.049 113.989 142.276 114.143 141.496C114.201 141.198 114.251 140.898 114.294 140.597L114.295 140.582L114.296 140.578L114.296 140.577L113.499 140.481ZM109.057 149.624C107.531 151.803 105.669 153.454 104.177 154.564C103.582 155.008 102.966 155.423 102.331 155.807C102.1 155.946 101.866 156.078 101.629 156.205L101.622 156.209L101.984 156.926L102.347 157.643L102.348 157.641C102.35 157.641 102.351 157.64 102.352 157.639C102.356 157.638 102.36 157.635 102.365 157.633L102.41 157.609C102.448 157.589 102.503 157.56 102.572 157.522C102.711 157.445 102.911 157.333 103.158 157.183C103.839 156.772 104.499 156.328 105.136 155.853C106.717 154.676 108.719 152.907 110.373 150.546L109.057 149.624Z" fill="#6A462F"/>
<path d="M100.602 158.899C107.505 163.732 118.874 159.404 125.997 149.232C133.12 139.06 133.298 126.895 126.396 122.062C119.493 117.229 108.123 121.557 101.001 131.729C93.8779 141.902 93.6995 154.066 100.602 158.899Z" stroke="black"/>
<path d="M113.499 140.481C113.499 140.481 114.103 135.418 117.283 130.876C120.463 126.335 125.014 124.036 125.014 124.036M113.499 140.481C113.499 140.481 112.895 145.544 109.715 150.085C106.535 154.627 101.984 156.926 101.984 156.926" stroke="black" stroke-linecap="round" stroke-linejoin="round"/>
<defs>
<linearGradient id="paint0_linear_4_78" x1="105.07" y1="5.78182" x2="105.07" y2="-3.97277e-06" gradientUnits="userSpaceOnUse">
<stop offset="0.0447915" stop-color="#DEDEDE"/>
<stop offset="0.525595" stop-color="white"/>
<stop offset="0.884739" stop-color="#E2E2E2"/>
</linearGradient>
<linearGradient id="paint1_linear_4_78" x1="105.324" y1="265.964" x2="105.324" y2="260.182" gradientUnits="userSpaceOnUse">
<stop offset="0.0447915" stop-color="#DEDEDE"/>
<stop offset="0.525595" stop-color="white"/>
<stop offset="0.884739" stop-color="#E2E2E2"/>
</linearGradient>
</defs>
</svg>
